<?xml version="1.0" encoding="UTF-8"?>
<svg id="Calque_1" data-name="Calque 1" xmlns="http://www.w3.org/2000/svg" viewBox="0 0 2400 1000">
  <defs>
    <style>
      .cls-1 {
        fill: #f6a806;
        stroke-width: 0px;
      }
    </style>
  </defs>
  <path class="cls-1" d="M525.1,287.53l-84.57,114.95h-1.35l-84.57-114.95h-186.03v424.95h180.2v-156.97l1.92-.63s15.54,27.11,27.17,43.28l53.58,72.97h16.8l53.58-72.97c11.63-16.17,27.17-43.28,27.17-43.28l1.89.63h.03v156.97h180.14v-424.95h-185.97Z"/>
  <path class="cls-1" d="M733.7,287.53v160.15h114.95v264.79h183.41v-264.79h114.98v-160.15h-413.34Z"/>
  <path class="cls-1" d="M1520.29,528.77l-43.45,61.43-32.05,60.73-28.5,61.54h-91.62v-139.49l-164.68-285.44h208.6l27.11,53.57c5.18,9.71,19.37,49.74,19.37,49.74h1.98s14.83-40.02,20.01-49.74l27.11-53.57h240.3l-27.69,55.38-58.81,43.28-14.95,58.11-5.35,32.4-77.37,52.06Z"/>
  <path class="cls-1" d="M2231.42,287.53v424.93h-180.27v-156.54c.06-.23.06-.41.06-.41h-.06l-1.86-.64s-15.53,27.11-27.11,43.28l-53.63,72.94h-16.81l-53.57-72.94c-11.63-16.17-27.11-43.28-27.11-43.28l-1.98.64v156.94h-353.33v-41.94l29.32-12.68,5.64-74.34h82.89l1.98-84,80.45-20.88,50.78-37.87,21.93-43.22,48.4-.35v-13.2l-16.99-27.4-4.25-41.82-50.61-15.71-38.39-5.47-3.37-6.05h151.36l84.64,114.94h1.28l84.58-114.94h186.03Z"/>
</svg>