<?xml version="1.0" encoding="UTF-8"?>
<svg id="Calque_1" data-name="Calque 1" xmlns="http://www.w3.org/2000/svg" viewBox="0 0 1080 1080">
  <defs>
    <style>
      .cls-1 {
        fill: #f6a806;
        stroke-width: 0px;
      }
    </style>
  </defs>
  <path class="cls-1" d="M420.71,158.57l-76.01,103.32h-1.22l-76.01-103.32H100.26v381.96h161.97v-141.09l1.73-.57s13.97,24.37,24.42,38.9l48.16,65.59h15.1l48.16-65.59c10.45-14.53,24.42-38.9,24.42-38.9l1.7.57h.03v141.09h161.91V158.57h-167.15Z"/>
  <path class="cls-1" d="M608.21,158.57v143.95h103.32v238.01h164.86v-238.01h103.35v-143.95h-371.53Z"/>
  <g>
    <path class="cls-1" d="M395.99,770.65l-35.67,50.42-26.31,49.85-23.39,50.51h-75.2v-114.49l-135.17-234.28h171.21l22.25,43.97c4.25,7.97,15.9,40.82,15.9,40.82h1.62s12.17-32.85,16.42-40.82l22.25-43.97h197.23l-22.73,45.45-48.27,35.52-12.27,47.7-4.39,26.59-63.5,42.73Z"/>
    <path class="cls-1" d="M979.67,572.65v348.77h-147.96v-128.48c.05-.19.05-.33.05-.33h-.05l-1.53-.53s-12.75,22.25-22.25,35.52l-44.02,59.87h-13.8l-43.97-59.87c-9.55-13.27-22.25-35.52-22.25-35.52l-1.62.53v128.81h-290v-34.42l24.06-10.41,4.63-61.02h68.04l1.62-68.94,66.03-17.14,41.68-31.08,18-35.47,39.72-.29v-10.84l-13.94-22.49-3.49-34.33-41.54-12.89-31.51-4.49-2.77-4.97h124.23l69.47,94.34h1.05l69.42-94.34h152.69Z"/>
  </g>
</svg>